<?xml version="1.0" standalone="no"?>
<!DOCTYPE svg PUBLIC "-//W3C//DTD SVG 20010904//EN"
 "http://www.w3.org/TR/2001/REC-SVG-20010904/DTD/svg10.dtd">
<svg version="1.0" xmlns="http://www.w3.org/2000/svg"
 width="260.000000pt" height="260.000000pt" viewBox="0 0 260.000000 260.000000"
 preserveAspectRatio="xMidYMid meet">
<metadata>
Created by potrace 1.14, written by Peter Selinger 2001-2017
</metadata>
<g transform="translate(0.000000,260.000000) scale(0.100000,-0.100000)"
fill="#000000" stroke="none">
<path d="M257 2594 c-2 -3 -15 -7 -27 -9 -56 -11 -110 -99 -132 -213 -12 -65
-16 -1972 -4 -2081 8 -70 39 -171 57 -181 6 -4 10 -10 10 -14 -3 -19 0 -26 12
-26 8 0 22 -9 31 -19 27 -29 124 -45 181 -28 17 4 35 9 41 11 6 1 132 124 281
274 148 150 272 272 274 272 10 0 709 700 709 709 0 6 12 22 27 37 41 41 14
41 -71 0 -41 -20 -79 -36 -85 -36 -6 0 -11 -5 -11 -11 0 -5 -4 -8 -9 -5 -5 4
-11 1 -13 -4 -2 -6 -10 -12 -18 -13 -8 -2 -21 -6 -27 -10 -7 -5 -13 -5 -13 -1
0 4 -9 -1 -20 -11 -11 -10 -20 -15 -20 -11 0 4 -10 0 -22 -8 -12 -9 -30 -16
-40 -16 -10 0 -18 -5 -18 -10 0 -6 -3 -9 -7 -8 -5 1 -64 -26 -133 -60 -170
-85 -178 -87 -242 -68 -92 27 -199 136 -215 218 -3 18 -10 41 -15 51 -18 34
-25 119 -15 168 5 27 35 90 46 99 3 3 13 18 21 34 8 16 47 62 85 102 39 40
116 121 171 181 56 59 127 135 158 167 31 33 53 63 49 67 -4 4 -38 23 -76 43
-37 19 -97 53 -135 74 -138 79 -220 121 -226 115 -3 -4 -6 -1 -6 5 0 7 -7 12
-15 12 -8 0 -15 3 -15 8 0 4 -18 15 -40 25 -22 9 -40 21 -40 27 0 5 -3 10 -7
9 -16 -2 -53 14 -53 23 0 5 -4 6 -10 3 -5 -3 -10 -2 -10 3 0 5 -10 12 -22 16
-13 3 -23 5 -23 4 0 -1 -19 11 -42 25 -24 15 -49 27 -57 27 -8 0 -17 4 -20 9
-10 16 -186 38 -199 25z"/>
<path d="M1431 1850 c-72 -71 -131 -131 -131 -134 0 -3 -18 -24 -40 -46 -22
-22 -40 -43 -40 -46 0 -4 -16 -23 -35 -43 -60 -63 -105 -118 -105 -129 0 -5
-7 -13 -16 -16 -8 -3 -13 -10 -9 -16 6 -10 43 6 56 23 3 5 9 8 13 8 3 -1 8 0
11 0 3 1 8 2 13 3 17 5 108 52 113 59 3 5 8 8 10 7 6 -2 43 13 131 54 126 58
212 80 309 80 80 0 92 -3 160 -36 70 -35 125 -79 177 -142 24 -29 66 -116 55
-116 -3 0 -1 -6 4 -12 5 -7 8 -29 7 -48 -9 -96 -9 -95 -143 -238 -27 -30 -51
-57 -53 -62 -3 -8 -82 -95 -215 -238 -34 -37 -58 -68 -53 -70 4 -2 25 7 46 19
126 72 251 139 262 139 6 0 12 4 12 9 0 5 13 13 28 19 16 5 36 17 45 27 9 9
17 14 17 11 0 -8 111 59 186 111 243 170 307 315 192 439 -50 54 -116 97 -333
214 -27 14 -79 43 -115 64 -36 20 -82 44 -102 54 -21 9 -38 20 -38 25 0 4 -4
5 -10 2 -5 -3 -10 -1 -10 5 0 6 -4 8 -10 5 -5 -3 -10 -1 -10 4 0 6 -6 11 -13
11 -7 0 -34 13 -60 30 -26 16 -47 27 -47 24 0 -3 -15 6 -32 19 -18 14 -47 32
-64 41 l-32 15 -131 -129z"/>
</g>
</svg>
