<!-- Generated by IcoMoon.io -->
<svg version="1.1" xmlns="http://www.w3.org/2000/svg" width="2499" height="1024" viewBox="0 0 2499 1024">
<title></title>
<g id="icomoon-ignore">
</g>
<path d="M1468.922 694.593c-55.248 9.692-128.726 87.875-132.278 138.687 54.050-36.84 99.225-78.43 132.278-138.687zM2024.073 827.666c46.319-29.938 82.542-70.184 118.373-110.755 2.487-2.823 3.619-11.372 2.263-12.224-4.213-2.599-10.375-4.661-15.003-3.574-45.523 10.622-101.802 75.394-105.634 126.553zM852.898 818.131c2.51 2.431 5.031 4.851 7.54 7.283 37.478-35.327 75.271-70.318 112.088-106.306 5.109-4.997 5.456-14.879 8-22.487-8.515-0.549-19.081-4.627-25.21-1.076-49.254 28.56-84.593 68.839-102.419 122.586zM1582.309 828.865c2.151 1.311 4.314 2.611 6.487 3.91 47.327-27.462 86.184-64.895 120.345-107.573 2.465-3.070 1.524-13.77-0.134-14.353-5.804-2.028-13.669-3.473-18.902-1.087-40.716 18.644-70.979 49.265-94.34 86.766-6.084 9.781-9.064 21.512-13.456 32.336zM1023.73 564.432c31.764 0.964 63.652 3.955 95.001 9.064 16.627 2.723 32.403 11.686 33.501 37.557-35.697-19.686-71.562-12.426-107.517-9.266-64.794 5.692-129.723 9.793-194.518 15.563-9.266 0.829-21.557 4.728-26.509 11.54-46.307 63.674-91.36 128.267-136.547 192.759-2.487 3.541-2.857 8.56-6.633 20.672 14.263-6.532 24.336-9.49 32.515-15.171 53.389-37.008 109.287-70.43 153.084-120.312 17.725-20.19 41.983-35.137 64.851-50.027 7.966-5.188 23.753-7.753 30.733-3.305 21.333 13.613 41.31 29.983 59.484 47.686 12.65 12.302 6.476 27.137-2.543 40.537-14.218 21.12-27.663 42.767-41.445 64.201 2.443 2.342 4.874 4.672 7.316 7.014 14.342-9.703 30.845-17.311 42.599-29.512 29.983-31.058 57.758-64.223 86.598-96.368 6.095-6.779 15.944-19.417 19.003-18.050 11.193 4.997 20.672 14.33 29.759 23.092 2.174 2.095 0.325 8.336 0.325 18.498 13.053-8.314 22.857-15.204 33.254-21.008 14.891-8.314 29.512-18.823 45.613-22.61 9.905-2.342 25.154 3.272 32.627 10.723 4.751 4.728 2.555 20.795-1.58 29.288-13.479 27.675-29.591 54.050-44.033 81.254-5.053 9.524-8.202 20.045-9.244 32.605 35.428-16.784 67.999-35.462 93.141-65.624 23.316-28 46.027-57.064 72.85-81.422 32.963-29.938 60.705-27.193 94.374 4.045 32.571-51.237 64.223-102.609 97.802-152.692 8.246-12.302 10.935-41.176 38.408-23.439 20.638 13.322 21.232 28.437 3.709 55.663-29.030 45.153-59.562 89.422-86.688 135.695-20.123 34.308-36.033 71.080-53.243 107.035-2.106 4.414-0.639 10.532-0.829 15.865 5.176-0.661 11.776 0.515 15.316-2.252 24.078-18.767 48.134-37.669 71.013-57.848 29.826-26.319 58.33-54.106 87.943-80.66 5.737-5.154 13.602-8.986 21.109-10.756 5.882-1.389 13.804-0.482 18.958 2.543 23.977 14.14 47.73 28.773 70.229 45.086 2.297 1.658-3.204 16.235-7.059 23.809-11.742 22.969-24.459 45.456-36.806 68.145 1.815 1.591 3.608 3.204 5.412 4.807 6.241-5.008 13.232-9.322 18.61-15.126 27.932-30.207 55.685-60.582 83.013-91.326 14.095-15.843 29.579-29.904 28.515-55.45-0.706-17.165 14.857-25.131 32.056-21.378 17.367 3.798 31.372 13.792 23.316 33.613-8.325 20.459 1.031 28.414 16.661 37.714 25.053 14.913 25.916 20.818 10.868 46.599-17.512 30.005-35.697 59.629-49.848 92.727 41.579-22.061 80.346-45.153 111.741-80.615 27.686-31.271 59.092-59.764 91.718-85.926 18.89-15.137 44.156-15.966 62.33 4.056 12.661 13.938 17.434 7.821 24.437-3.641 26.823-43.831 53.467-87.786 81.31-130.967 6.084-9.423 8.504-29.456 29.378-17.154 17.389 10.252 19.238 24.728 12.526 41.041-3.843 9.344-10.868 17.389-16.538 25.96-47.204 71.461-91.013 144.804-128.155 231.705 59.013-17.199 103.673-50.565 154.014-69.78 1.737 1.927 3.473 3.854 5.221 5.793-7.63 8.291-14.017 18.42-23.114 24.56-31.215 21.075-63.237 40.985-95.214 60.907-48.593 30.285-78.934 16.549-89.5-44.649-16.728 16.941-31.518 32.033-46.431 46.991-29.221 29.288-56.716 28.885-78.296-5.445-11.507-18.33-17.972-13.927-30.711-4.090-14.398 11.115-30.128 20.65-45.882 29.837-15.54 9.064-31.977 13.266-47.63-0.090-15.91-13.58-25.736-31.182-18.431-51.54 9.994-27.798 24.067-54.106 35.204-81.523 4.269-10.498 5.266-22.319 7.742-33.534-9.344 6.879-19.843 12.605-27.809 20.806-37.445 38.476-73.399 78.419-111.404 116.312-33.277 33.165-53.523 26.666-69.187-19.764-0.683-2.017-2.431-3.664-5.333-7.877-18.745 14.398-37.041 29.288-56.201 42.991-35.731 25.546-45.568 23.686-69.175-14.801-6.465-10.543-11.294-12.571-21.098-5.759-16.448 11.417-31.977 29.96-54.722 15.552-16.515-10.476-31.047-24.078-48.111-37.579-14.857 12.538-32.773 29.837-52.851 44.1-33.086 23.495-58.711 16.818-76.537-20.56-5.4-11.35-8.616-10.577-16.582-5.389-6.689 4.37-13.77 8.157-20.347 12.661-19.798 13.535-38.509 10.566-57.052-2.734-18.207-13.064-22.812-30.778-17.479-51.405 3.126-12.056 7.496-23.854 12.157-35.428 4.571-11.35 10.218-22.252 18.969-40.997-53.064 29.837-88.973 66.251-120.334 107.707-7.574 10.005-13.389 21.344-21.154 31.17-5.725 7.26-13.311 13.042-20.067 19.495-8.504-9.658-17.49-18.946-25.176-29.21-1.905-2.532 0.415-8.213 0.661-11.059-18.017 5.232-37.815 17.792-52.526 13.378-15.215-4.56-25.479-25.613-39.865-41.635-14.991 14.129-33.176 31.081-51.136 48.235-31.551 30.117-63.618 22.039-77.052-19.641-1.613-5.031-2.465-10.319-4.448-18.89-18.812 11.787-34.812 22.409-51.383 32.067-18.711 10.879-37.714 21.311-57.008 31.103-13.759 6.991-28.448 11.025-40.806-2.723-12.605-14.028-23.316-29.96-13.58-49.377 14.263-28.459 28.963-56.895 45.982-83.752 22.509-35.484 47.439-69.422 75.988-110.788-29.086 3.193-51.719 6.263-74.464 7.977-16.224 1.232-39.237 8.437-43.181-13.837-4.751-26.733 22.185-20.414 36.739-23.327 33.478-6.723 67.808-9.367 101.13-16.65 13.064-2.857 27.17-11.249 35.932-21.355 19.395-22.353 35.506-47.517 53.344-71.248 8.291-11.047 16.504-23.35 33.187-10.857 14.566 10.902 22.397 22.969 10.678 40.492-11.216 16.75-22.453 33.467-32.56 48.526 48.728 0 96.211-1.076 143.617 0.381z"></path>
<path d="M1340.226 251.721c-40.974-4.885-67.035 16.426-78.072 62.206l78.072-62.206zM1945.023 372.806c2.891 2.745 5.781 5.49 8.661 8.235 37.030-34.386 74.441-68.391 110.631-103.629 5.165-5.031 4.437-16.101 6.442-24.381-8.213 0.034-17.613-2.588-24.414 0.504-52.75 23.977-81.892 67.797-101.321 119.27v0zM958.73 260.012c23.227-15.776 39.91-25.725 54.946-37.725 14.487-11.563 25.299-4.661 36.616 3.933 11.619 8.818 14.857 19.081 6.991 32.705-5.434 9.412-8.84 20-13.143 30.061 1.849 1.535 3.697 3.081 5.546 4.616 18.207-17.837 37.030-35.114 54.408-53.725 14.274-15.283 28.705-22.565 47.237-8.112 17.098 13.344 13.815 28.324 4.605 45.288-13.58 25.042-26.128 50.733-37.49 76.85-3.742 8.605-2.431 19.417-3.44 29.21 9.311-2.162 19.395-2.745 27.798-6.79 28.817-13.905 51.741-29.523 63.103-65.444 14.185-44.784 45.321-82.004 94.262-97.231 30.14-9.378 53.938-3.339 64.268 15.339 10.005 18.117 4.661 40.089-19.372 59.909-24.537 20.235-51.719 37.254-77.612 55.853-7.238 5.188-17.064 9.647-20.224 16.851-3.574 8.123-0.986 18.958-1.076 28.616 8.168-1.602 18.073-0.784 24.246-5.199 62.352-44.56 123.236-91.046 172.255-150.765 6.633-8.090 7.664-20.537 13.3-29.747 6.543-10.678 13.703-26.039 23.428-28.593 18.095-4.739 32.761 11.328 33.086 26.801 0.426 20.526 9.49 30.296 24.246 40.705 12.896 9.098 13.535 21.736 4.224 35.865-16.313 24.773-31.428 50.375-46.375 76.010-3.619 6.196-4.639 13.916-4.112 23.070 44.503-27.753 91.203-51.405 120.626-96.973 9.288-14.386 19.439-28.224 28.694-42.644 11.249-17.512 25.288-22.554 43.17-10.286 17.748 12.179 8.538 25.064 0.796 38.364-20.425 35.047-40.324 70.397-56.234 109.354 46.005-16.089 90.576-32.605 116.995-74.789 22.263-35.562 50.061-64.951 83.808-89.197 25.355-18.207 38.431-16.336 57.859 7.72 19.238 23.82 18.185 36.291-5.468 56.985-4.056 3.541-9.512 5.479-14.319 8.168-2.118-5.703-4.784-11.272-6.185-17.143-0.964-4.090-0.19-8.605-3.765-14.588-42.050 38.946-80.537 79.562-88.279 147.684 20.47-9.961 36.145-15.966 50.117-24.694 44.526-27.854 87.282-57.456 123.796-96.491 23.776-25.411 53.579-46.072 83.214-64.851 25.434-16.123 40.459-10.117 56.503 15.641 5.658 9.087 5.12 19.484 23.395 14.778 17.546-4.527 28.773 17.333 19.35 34.7-12.28 22.577-26.162 44.279-39.361 66.363l6.689 6.129c27.753-23.977 55.652-47.764 83.181-71.999 24.862-21.882 49.366-44.19 73.904-66.453 10.913-9.893 21.277-16.033 36.19-5.703 14.263 9.882 14.554 21.826 9.793 35.932-3.843 11.395-7.921 22.734-6.689 37.209 18.543-14.599 38.285-27.955 55.316-44.145 17.143-16.291 31.809-17.434 51.047-3.63 21.882 15.72 10.969 31.932 3.44 48.1-11.103 23.776-23.54 46.924-34.946 70.554-2.23 4.616-2.398 10.23-5.098 22.644 42.8-21.837 79.719-40.963 116.939-59.45 7.305-3.63 15.809-4.84 23.753-7.171-4.336 8.358-6.521 19.809-13.356 24.537-34.666 24-70.43 46.408-106.026 69.041-19.014 12.078-37.299 7.877-54.072-4.863-16.459-12.504-14.835-30.465-10.241-47.092 6.23-22.554 15.070-44.403 25.221-73.478-41.277 30.756-72.201 61.366-95.931 99.113-6.084 9.669-12.101 19.383-18.498 28.84-9.793 14.51-22.969 18.543-38.476 10.039-15.899-8.728-13.557-21.792-6.79-35.394 12.19-24.526 24.336-49.075 36.425-73.657 2.846-5.837 5.333-11.854 3.552-21.904-19.283 16.269-38.621 32.459-57.825 48.828-18.263 15.563-36.055 31.686-54.599 46.901-38.341 31.462-57.265 24.784-67.293-27.764-20.134 15.26-38.543 29.389-57.12 43.249-42.946 32.056-56.537 29.019-77.881-19.865-5.826-13.344-11.462-10.835-20.302-5.277-23.193 14.599-46.038 29.826-69.859 43.316-41.613 23.596-68.324 15.014-86.99-28.806-6.118-14.364-10.061-18.117-23.607-7.709-14.398 11.059-30.207 20.594-46.307 29.075-35.798 18.857-60.783 7.518-72.234-31.697-1.176-4.045-2.185-8.146-3.429-12.762-25.804 15.361-49.982 30.263-74.665 44.246-15.966 9.042-32.403 11.473-47.383-2.745-14.218-13.501-23.316-29.512-14.969-48.952 11.182-26.084 24.325-51.327 36.817-76.839 4.011-8.179 9.714-15.708 12.504-24.235 1.356-4.179-2.207-9.961-3.541-15.003-4.045 1.389-9.019 1.759-11.921 4.403-5.86 5.344-10.117 12.437-15.888 17.916-47.092 44.784-93.993 89.803-141.925 133.679-10.678 9.793-24.571 16.851-38.083 22.633-34.173 14.622-48.302 12.19-71.775-16.952-11.574-14.375-20.392-14.14-34.005-5.927-8.717 5.266-18.834 8.168-27.932 12.874-19.708 10.218-39.137 13.187-57.4-2.308-19.171-16.269-25.109-37.478-20.369-61.792 1.905-9.748 4.594-19.339 6.924-28.997-2.342-1.793-4.695-3.585-7.036-5.378-26.543 27.294-53.22 54.464-79.539 81.959-8.751 9.143-12.549 26.521-31.473 15.944-17.042-9.512-21.725-23.395-13.456-40.279 14.028-28.605 29.333-56.582 44.078-84.839 2.084-4 3.989-8.090 2.431-16.952-8.011 6.286-16.963 11.697-23.888 19.014-38.364 40.526-77.097 80.783-113.791 122.799-11.708 13.412-19.888 19.977-36.436 9.098-16.089-10.588-12.728-21.266-4.202-34.487 26.005-40.302 51.674-80.828 76.974-121.567 8.403-13.524 14.991-28.168 22.946-41.983 4.863-8.448 0.437-26.924 19.047-21.456 16.65 4.896 33.12 12.459 30.89 34.756-0.751 7.507-3.462 14.812-7.249 30.229v0z"></path>
<path d="M663.77 221.2c1.098 2.364 2.185 4.739 3.272 7.115 23.776 0 47.562 0.482 71.293-0.336 6.073-0.213 14.778-2.823 17.568-7.283 26.106-41.669 51.181-83.987 76.548-126.104-2.454-1.894-4.896-3.776-7.35-5.669-53.781 44.089-107.55 88.178-161.331 132.278zM478.272 278.7c-121.175 9.871-232.512 46.767-331.121 118.564 127.516 7.54 226.394-63.528 331.121-118.564zM808.552 230.107c15.563 14.935 44.257 12.616 47.573 40.683-78.509-6.353-60.246-18.51-98.766 55.596-13.109 25.21-23.787 51.708-35.069 77.848-3.585 8.325-6.14 17.21-8.168 26.072-11.787 51.394-0.235 67.977 52.033 75.495-41.758 27.966-94.564 0.695-97.814-53.467-1.445-24.156 4.493-50.038 12.594-73.209 11.227-32.123 27.574-62.475 41.87-93.511 11.328-24.593 10.868-25.994-16.963-26.409-53.825-0.807-104.010 3.899-151.919 37.815-81.937 57.993-170.261 107.057-267.447 135.516-34.33 10.061-71.562 11.652-107.662 13.524-14.913 0.773-33.434-3.944-44.929-12.997-34.386-27.092-41.96-48.403-1.412-72.817 95.069-57.254 198.551-90.99 306.987-110.811 31.372-5.737 63.909-6.386 94.508-14.588 24.616-6.588 49.915-17.378 70.072-32.683 70.901-53.781 139.807-110.194 209.263-165.869 29.602-23.731 70.643-17.367 86.587 16.426 4.112 8.717-0.045 24.459-5.524 34.039-22.106 38.588-46.319 75.965-69.534 113.914-5.893 9.636-10.969 19.776-16.28 29.434z"></path>
<path d="M54.602 864.473c-6.409 15.518-14.319 30.61-18.913 46.655-9.176 32.033 0.471 44.795 33.826 46.487 86.878 4.414 170.093-13.781 251.951-40.862 65.635-21.703 125.667-54.24 182.697-92.66 70.901-47.753 69.982-79.069-6.644-116.077-40.828-19.731-84.794-33.109-127.751-48.179-30.106-10.554-61.243-18.173-91.293-28.873-27.652-9.849-47.551-28.873-49.389-59.674-1.871-31.271 18.487-51.204 43.103-64.772 99.192-54.688 204.792-66.733 314.774-42.834 13.031 2.835 25.322 10.017 37.333 16.347 17.658 9.311 36.179 21.4 31.91 43.775-4.045 21.187-18.734 37.445-44.145 45.333 0.919-7.372 0.706-11.899 2.106-15.832 14.801-41.254 14.241-44.123-28.112-48.952-84.973-9.692-168.782-4.213-249.934 25.456-6.42 2.353-13.736 3.776-18.913 7.832-18.51 14.51-36.268 29.972-54.318 45.075 18.823 8.683 36.918 19.899 56.604 25.624 67.909 19.697 138.216 33.288 196.568 76.57 21.815 16.179 42.476 34.756 60.425 55.092 32.896 37.266 28.437 79.763-11.821 109.993-75.64 56.806-159.941 96.984-250.64 123.483-66.094 19.305-133.847 28.123-202.675 28.427-37.355 0.144-69.377-12.505-94.094-41.211-22.050-25.624-22.644-43.316-1.356-69.668 9.524-11.787 20.874-22.106 31.394-33.086 2.431 2.174 4.874 4.358 7.305 6.532z"></path>
<path d="M1730.532 161.616c-4.448 19.383-8.717 34.946-28.571 30.521-8.381-1.871-15.227-10.678-22.767-16.325l40.84-33.041c4.011 7.216 8.033 14.42 10.498 18.846z"></path>
</svg>
